<svg xmlns="http://www.w3.org/2000/svg" viewBox="0 0 1100 620"><defs><linearGradient id="g" x1="0" x2="1"><stop stop-color="#20F2A0"/><stop offset=".5" stop-color="#4CA7FF"/><stop offset="1" stop-color="#B565FF"/></linearGradient></defs><rect width="1100" height="620" rx="36" fill="#07131f"/><g font-family="Inter,Arial" font-weight="900" font-size="22" fill="#fff"><text x="70" y="78">Cloud architecture roadmap</text></g><g stroke="url(#g)" stroke-width="3" fill="none"><path d="M170 188H930"/><path d="M322 188v160h310"/><path d="M506 188v278h422"/><path d="M746 188v108"/></g><g font-family="Inter,Arial"><g><rect x="70" y="138" width="200" height="96" rx="22" fill="#101a2e" stroke="#263653"/><text x="100" y="177" fill="#fff" font-weight="800" font-size="20">Web app</text><text x="100" y="205" fill="#9fb1d1" font-size="14">CloudFront + S3</text></g><g><rect x="326" y="138" width="210" height="96" rx="22" fill="#101a2e" stroke="#263653"/><text x="356" y="177" fill="#fff" font-weight="800" font-size="20">API layer</text><text x="356" y="205" fill="#9fb1d1" font-size="14">API Gateway + Lambda</text></g><g><rect x="602" y="138" width="210" height="96" rx="22" fill="#101a2e" stroke="#263653"/><text x="632" y="177" fill="#fff" font-weight="800" font-size="20">AI services</text><text x="632" y="205" fill="#9fb1d1" font-size="14">Bedrock / SageMaker</text></g><g><rect x="858" y="138" width="180" height="96" rx="22" fill="#101a2e" stroke="#263653"/><text x="888" y="177" fill="#fff" font-weight="800" font-size="20">Monitoring</text><text x="888" y="205" fill="#9fb1d1" font-size="14">CloudWatch</text></g><g><rect x="250" y="348" width="210" height="96" rx="22" fill="#101a2e" stroke="#263653"/><text x="280" y="387" fill="#fff" font-weight="800" font-size="20">Project data</text><text x="280" y="415" fill="#9fb1d1" font-size="14">DynamoDB / RDS</text></g><g><rect x="512" y="466" width="230" height="96" rx="22" fill="#101a2e" stroke="#263653"/><text x="542" y="505" fill="#fff" font-weight="800" font-size="20">Analytics jobs</text><text x="542" y="533" fill="#9fb1d1" font-size="14">ECS / Batch roadmap</text></g><g><rect x="806" y="296" width="220" height="96" rx="22" fill="#101a2e" stroke="#263653"/><text x="836" y="335" fill="#fff" font-weight="800" font-size="20">Security</text><text x="836" y="363" fill="#9fb1d1" font-size="14">IAM, logs, backups</text></g></g></svg>