<svg width="720" height="520" viewBox="0 0 720 520" xmlns="http://www.w3.org/2000/svg">
  <defs><linearGradient id="a" x1="0" y1="0" x2="1" y2="1"><stop stop-color="#111827"/><stop offset="1" stop-color="#312e81"/></linearGradient><linearGradient id="b" x1="0" y1="0" x2="1" y2="1"><stop stop-color="#6d5df7"/><stop offset="1" stop-color="#22c55e"/></linearGradient></defs>
  <rect width="720" height="520" rx="36" fill="url(#a)"/>
  <g stroke="#6d5df7" stroke-opacity=".45" stroke-width="3" fill="none"><path d="M155 260 H300"/><path d="M420 260 H565"/><path d="M360 180 V110"/><path d="M360 340 V415"/></g>
  <g font-family="Inter,Arial">
    <rect x="270" y="200" width="180" height="120" rx="24" fill="#fff" fill-opacity=".08" stroke="#fff" stroke-opacity=".18"/>
    <text x="305" y="248" fill="#fff" font-size="22" font-weight="900">AI Core</text><text x="296" y="278" fill="#c9ccef" font-size="15">matching + analytics</text>
    <rect x="70" y="215" width="150" height="90" rx="20" fill="#fff"/><text x="104" y="256" fill="#111827" font-size="18" font-weight="900">Profiles</text><text x="103" y="280" fill="#6b7280" font-size="13">founders & projects</text>
    <rect x="500" y="215" width="150" height="90" rx="20" fill="#fff"/><text x="533" y="256" fill="#111827" font-size="18" font-weight="900">Insights</text><text x="526" y="280" fill="#6b7280" font-size="13">growth signals</text>
    <rect x="272" y="45" width="176" height="90" rx="20" fill="#fff"/><text x="305" y="86" fill="#111827" font-size="18" font-weight="900">Messaging</text><text x="312" y="110" fill="#6b7280" font-size="13">chat & groups</text>
    <rect x="272" y="390" width="176" height="90" rx="20" fill="#fff"/><text x="300" y="432" fill="#111827" font-size="18" font-weight="900">Analytics</text><text x="303" y="456" fill="#6b7280" font-size="13">events & feedback</text>
  </g>
  <circle cx="360" cy="260" r="8" fill="url(#b)"/><circle cx="145" cy="260" r="8" fill="#6d5df7"/><circle cx="575" cy="260" r="8" fill="#22c55e"/><circle cx="360" cy="90" r="8" fill="#6d5df7"/><circle cx="360" cy="435" r="8" fill="#22c55e"/>
</svg>