<svg xmlns="http://www.w3.org/2000/svg" viewBox="0 0 900 640">
<defs><linearGradient id="a" x1="0" x2="1"><stop stop-color="#20F2A0"/><stop offset=".5" stop-color="#4CA7FF"/><stop offset="1" stop-color="#B565FF"/></linearGradient><filter id="blur"><feGaussianBlur stdDeviation="22"/></filter></defs>
<rect width="900" height="640" rx="44" fill="#07131f"/>
<circle cx="180" cy="120" r="95" fill="#20F2A0" opacity=".15" filter="url(#blur)"/>
<circle cx="730" cy="500" r="130" fill="#B565FF" opacity=".16" filter="url(#blur)"/>
<g fill="none" stroke="url(#a)" stroke-width="2" opacity=".65">
<path d="M136 450C226 250 340 180 500 210s222 142 260 300"/>
<path d="M100 280c178 42 288 5 382-92 98 114 191 133 313 86"/>
<path d="M192 160c123 128 257 188 434 174"/>
</g>
<g>
<rect x="82" y="72" width="316" height="170" rx="28" fill="#101a2e" stroke="#24314e"/>
<text x="112" y="122" font-size="24" fill="#fff" font-family="Inter,Arial" font-weight="800">Project Lens</text>
<text x="112" y="158" font-size="16" fill="#a9b8d4" font-family="Inter,Arial">Problem, market, stage, stack</text>
<rect x="112" y="185" width="190" height="14" rx="7" fill="#20F2A0" opacity=".85"/><rect x="112" y="209" width="250" height="14" rx="7" fill="#4CA7FF" opacity=".6"/>
</g>
<g>
<rect x="504" y="96" width="308" height="178" rx="28" fill="#101a2e" stroke="#24314e"/>
<text x="536" y="146" font-size="24" fill="#fff" font-family="Inter,Arial" font-weight="800">Signal Graph</text>
<text x="536" y="182" font-size="16" fill="#a9b8d4" font-family="Inter,Arial">Similarity and founder fit</text>
<circle cx="564" cy="222" r="14" fill="#20F2A0"/><circle cx="630" cy="224" r="14" fill="#4CA7FF"/><circle cx="700" cy="202" r="14" fill="#B565FF"/><path d="M578 222h38M644 219l43-12" stroke="#7380a5" stroke-width="4"/>
</g>
<g>
<rect x="266" y="330" width="370" height="224" rx="34" fill="#f8fbff"/>
<text x="302" y="386" font-size="28" fill="#07131f" font-family="Inter,Arial" font-weight="900">AI Decision Console</text>
<text x="302" y="424" font-size="17" fill="#506077" font-family="Inter,Arial">Next actions generated from startup data</text>
<rect x="302" y="456" width="130" height="18" rx="9" fill="#20F2A0"/><rect x="302" y="489" width="244" height="18" rx="9" fill="#4CA7FF" opacity=".75"/><rect x="302" y="522" width="180" height="18" rx="9" fill="#B565FF" opacity=".75"/>
<circle cx="566" cy="489" r="32" fill="#07131f"/><path d="M552 489l10 10 20-24" stroke="#20F2A0" stroke-width="6" fill="none" stroke-linecap="round" stroke-linejoin="round"/>
</g>
<g fill="#fff" opacity=".9"><circle cx="180" cy="306" r="7"/><circle cx="386" cy="212" r="7"/><circle cx="678" cy="332" r="7"/><circle cx="784" cy="458" r="7"/></g>
</svg>