<svg xmlns="http://www.w3.org/2000/svg" viewBox="0 0 1000 660"><defs><linearGradient id="g" x1="0" x2="1"><stop stop-color="#20F2A0"/><stop offset=".55" stop-color="#4CA7FF"/><stop offset="1" stop-color="#B565FF"/></linearGradient></defs><rect width="1000" height="660" rx="36" fill="#09111f"/><rect x="34" y="34" width="932" height="592" rx="28" fill="#0d1729" stroke="#24314e"/><rect x="62" y="62" width="876" height="72" rx="18" fill="#121f35"/><circle cx="92" cy="98" r="9" fill="#ff6370"/><circle cx="122" cy="98" r="9" fill="#ffc857"/><circle cx="152" cy="98" r="9" fill="#20F2A0"/><text x="190" y="106" font-family="Inter,Arial" font-size="22" fill="#eaf1ff" font-weight="800">Snoubolr AI startup analysis</text><rect x="62" y="164" width="270" height="410" rx="24" fill="#111d31"/><text x="92" y="208" font-family="Inter,Arial" font-size="18" fill="#93a4c5">Project profile</text><text x="92" y="250" font-family="Inter,Arial" font-size="30" fill="#fff" font-weight="900">Founder Network AI</text><rect x="92" y="288" width="120" height="24" rx="12" fill="#20F2A0"/><rect x="92" y="326" width="180" height="18" rx="9" fill="#42506f"/><rect x="92" y="360" width="210" height="18" rx="9" fill="#42506f"/><rect x="92" y="394" width="150" height="18" rx="9" fill="#42506f"/><rect x="366" y="164" width="572" height="190" rx="24" fill="#f8fbff"/><text x="398" y="214" font-family="Inter,Arial" font-size="24" fill="#07131f" font-weight="900">Readiness score</text><circle cx="470" cy="284" r="52" fill="none" stroke="#e1e8f5" stroke-width="16"/><path d="M470 232a52 52 0 1 1-48 72" fill="none" stroke="url(#g)" stroke-width="16" stroke-linecap="round"/><text x="446" y="296" font-family="Inter,Arial" font-size="34" fill="#07131f" font-weight="900">82</text><rect x="565" y="250" width="300" height="18" rx="9" fill="#20F2A0"/><rect x="565" y="286" width="240" height="18" rx="9" fill="#4CA7FF"/><rect x="565" y="322" width="180" height="18" rx="9" fill="#B565FF"/><rect x="366" y="384" width="270" height="190" rx="24" fill="#111d31"/><rect x="668" y="384" width="270" height="190" rx="24" fill="#111d31"/><text x="398" y="430" font-family="Inter,Arial" font-size="21" fill="#fff" font-weight="800">Suggested next action</text><text x="398" y="467" font-family="Inter,Arial" font-size="16" fill="#9fb1d1">Validate beta flow with 20 founders</text><text x="700" y="430" font-family="Inter,Arial" font-size="21" fill="#fff" font-weight="800">Matching cluster</text><text x="700" y="467" font-family="Inter,Arial" font-size="16" fill="#9fb1d1">AI SaaS, analytics, API teams</text><path d="M414 520h168" stroke="#20F2A0" stroke-width="12" stroke-linecap="round"/><path d="M716 520h108" stroke="#4CA7FF" stroke-width="12" stroke-linecap="round"/></svg>